<?xml version="1.0" encoding="utf-8"?>
<!-- Generator: Adobe Illustrator 16.0.0, SVG Export Plug-In . SVG Version: 6.00 Build 0)  -->
<!DOCTYPE svg PUBLIC "-//W3C//DTD SVG 1.1//EN" "http://www.w3.org/Graphics/SVG/1.1/DTD/svg11.dtd">
<svg version="1.1" id="Layer_1" xmlns="http://www.w3.org/2000/svg" xmlns:xlink="http://www.w3.org/1999/xlink" x="0px" y="0px"
	 width="200px" height="37.899px" viewBox="0 0 200 37.899" enable-background="new 0 0 200 37.899" xml:space="preserve">
<g>
	<defs>
		<rect id="SVGID_1_" y="-1.865" width="200" height="42.935"/>
	</defs>
	<clipPath id="SVGID_2_">
		<use xlink:href="#SVGID_1_"  overflow="visible"/>
	</clipPath>
	<path clip-path="url(#SVGID_2_)" fill="#212121" d="M7.576,1.762h0.683v5.92c0,0.768-0.223,1.372-0.665,1.808
		c-0.443,0.437-1.026,0.656-1.749,0.656c-0.79,0-1.409-0.199-1.854-0.597C3.547,9.151,3.325,8.552,3.325,7.75h0.681
		c0,0.61,0.156,1.066,0.467,1.369C4.782,9.42,5.24,9.573,5.845,9.573c0.511,0,0.927-0.169,1.249-0.507
		C7.416,8.73,7.576,8.269,7.576,7.682V1.762z"/>
	<path clip-path="url(#SVGID_2_)" fill="#212121" d="M17.887,6.568c0,1.063-0.294,1.925-0.88,2.585
		c-0.587,0.662-1.373,0.992-2.356,0.992c-0.968,0-1.742-0.33-2.319-0.992c-0.576-0.66-0.865-1.522-0.865-2.585V5.223
		c0-1.058,0.287-1.92,0.862-2.585c0.575-0.665,1.348-0.996,2.316-0.996c0.983,0,1.771,0.332,2.359,0.996
		c0.587,0.666,0.883,1.527,0.883,2.585V6.568z M17.206,5.212c0-0.885-0.228-1.602-0.679-2.152c-0.452-0.547-1.079-0.822-1.881-0.822
		c-0.783,0-1.395,0.275-1.837,0.822c-0.439,0.55-0.66,1.267-0.66,2.152v1.356c0,0.894,0.221,1.615,0.664,2.163
		c0.443,0.55,1.055,0.823,1.838,0.823c0.807,0,1.434-0.273,1.883-0.82c0.447-0.547,0.672-1.268,0.672-2.166V5.212z"/>
	<path clip-path="url(#SVGID_2_)" fill="#212121" d="M21.809,6.291v3.734h-0.675V1.768h2.8c0.905,0,1.588,0.189,2.052,0.57
		c0.463,0.38,0.695,0.95,0.695,1.711c0,0.446-0.125,0.838-0.378,1.177c-0.251,0.339-0.608,0.588-1.069,0.747V5.99
		c0.507,0.13,0.867,0.355,1.082,0.68c0.214,0.322,0.32,0.74,0.32,1.251v0.778c0,0.261,0.029,0.492,0.087,0.692
		c0.06,0.2,0.16,0.368,0.304,0.5v0.135h-0.692c-0.14-0.139-0.239-0.33-0.294-0.573c-0.058-0.242-0.086-0.497-0.086-0.765V7.932
		c0-0.52-0.159-0.921-0.475-1.21c-0.315-0.287-0.773-0.431-1.37-0.431H21.809z M21.809,5.712h2.039c0.761,0,1.309-0.147,1.646-0.443
		c0.337-0.295,0.504-0.703,0.504-1.225c0-0.557-0.167-0.979-0.503-1.267c-0.334-0.287-0.855-0.431-1.562-0.431h-2.125V5.712z"/>
	<polygon clip-path="url(#SVGID_2_)" fill="#212121" points="36.32,10.025 35.645,10.025 30.934,2.89 30.916,2.897 30.916,10.025 
		30.234,10.025 30.234,1.762 30.916,1.762 35.628,8.885 35.645,8.879 35.645,1.762 36.32,1.762 	"/>
	<path clip-path="url(#SVGID_2_)" fill="#212121" d="M44.377,7.693h-3.77l-0.863,2.333H39.04l3.14-8.264h0.641l3.117,8.264h-0.703
		L44.377,7.693z M40.823,7.114h3.337l-1.656-4.518L40.823,7.114z"/>
	<polygon clip-path="url(#SVGID_2_)" fill="#212121" points="49.345,9.452 53.432,9.452 53.432,10.025 48.664,10.025 48.664,1.762 
		49.345,1.762 	"/>
	<path clip-path="url(#SVGID_2_)" fill="#39A4DD" d="M27.627,22.836c0-1.983-0.295-3.038-2.109-3.038c-1.518,0-2.53,1.35-2.53,3.249
		v9.322l1.603,0.169v3.881H14.381v-3.881l0.844-0.084c0.547-0.042,0.717-0.295,0.717-1.181v-8.395c0-1.898-0.295-3.079-2.109-3.079
		c-1.561,0-2.573,1.393-2.573,3.29v9.238l1.813,0.211v3.881H1.895v-3.797l1.434-0.125c0.801-0.127,0.97-0.338,0.97-1.35V20.22
		c0-0.885-0.21-1.138-1.011-1.265L1.854,18.83v-3.966h8.816v2.783h0.083c1.012-1.688,2.7-3.374,6.201-3.374
		c1.815,0,4.177,0.548,5.442,3.417c1.138-2.026,3.121-3.417,6.117-3.417c4.048,0,6.159,2.32,6.159,7.214v10.882l2.066,0.169v3.881
		H26.066v-3.881l0.844-0.084c0.548-0.042,0.717-0.295,0.717-1.181V22.836z"/>
	<path clip-path="url(#SVGID_2_)" fill="#39A4DD" d="M57.071,20.727c0,5.948-5.146,7.551-11.516,7.424
		c0.211,1.983,1.476,3.585,4.218,3.585c2.152,0,4.007-0.801,5.358-1.687l1.856,4.682c-0.21,0.21-3.417,2.235-8.184,2.235
		c-7.383,0-10.251-4.598-10.251-10.841c0-6.286,3.754-11.854,11.052-11.854C54.034,14.273,57.071,16.298,57.071,20.727
		 M49.225,19.292c-2.193,0-3.627,1.982-3.754,4.725c3.84,0.127,5.567-0.887,5.567-2.91C51.038,19.799,50.28,19.292,49.225,19.292"/>
	<path clip-path="url(#SVGID_2_)" fill="#39A4DD" d="M68.462,32.327l2.235,0.17v3.922H59.055v-3.797l1.477-0.125
		c0.8-0.127,0.97-0.338,0.97-1.393V20.22c0-0.885-0.211-1.138-1.012-1.265l-1.434-0.125v-3.966h9.408V32.327z"/>
	<path clip-path="url(#SVGID_2_)" fill="#39A4DD" d="M83.058,14.273c3.331,0,9.999,0.885,9.999,10.841
		c0,8.227-4.22,11.854-10.631,11.854c-6.37,0-9.914-3.417-9.914-11.179C72.511,16.72,78.459,14.273,83.058,14.273 M85.758,25.747
		c0-4.43-0.633-6.37-2.996-6.37c-2.193,0-2.996,1.94-2.996,5.612c0,3.838,0.422,6.833,2.996,6.833
		C84.914,31.821,85.758,29.796,85.758,25.747"/>
	<path clip-path="url(#SVGID_2_)" fill="#3575BB" d="M97.357,20.22c0-0.885-0.21-1.138-1.012-1.265l-1.434-0.125v-3.966h8.858v2.742
		h0.085c1.012-1.646,2.994-3.333,6.241-3.333c3.924,0,6.37,1.982,6.37,7.171v10.925l2.068,0.169v3.881h-10.673v-3.881l0.844-0.084
		c0.464-0.042,0.676-0.211,0.717-0.844v-8.732c0-1.982-0.423-3.079-2.277-3.079c-1.815,0-2.785,1.475-2.785,3.332v9.239l1.772,0.127
		v3.922h-11.18v-3.797l1.436-0.125c0.801-0.043,0.969-0.338,0.969-1.308V20.22z"/>
	<path clip-path="url(#SVGID_2_)" fill="#3575BB" d="M130.893,14.273c3.333,0,9.999,0.885,9.999,10.841
		c0,8.227-4.219,11.854-10.63,11.854c-6.372,0-9.914-3.417-9.914-11.179C120.348,16.72,126.295,14.273,130.893,14.273
		 M133.593,25.747c0-4.43-0.633-6.37-2.994-6.37c-2.193,0-2.996,1.94-2.996,5.612c0,3.838,0.423,6.833,2.996,6.833
		C132.749,31.821,133.593,29.796,133.593,25.747"/>
	<path clip-path="url(#SVGID_2_)" fill="#3575BB" d="M152.153,23.047v9.238l3.67,0.211v3.922h-13.034v-3.797l1.393-0.125
		c0.844-0.043,1.012-0.38,1.012-1.393V20.179c0-0.844-0.252-1.097-0.971-1.224l-1.475-0.125v-3.966h8.815v3.248h0.085
		c0.674-1.561,2.404-3.838,6.031-3.838c1.181,0,2.743,0.168,3.882,0.632v8.352l-5.526,0.338v-2.911c0-0.633-0.043-0.76-0.337-0.886
		c-0.212-0.084-0.506-0.127-0.886-0.127C153.125,19.672,152.153,21.064,152.153,23.047"/>
	<path clip-path="url(#SVGID_2_)" fill="#3575BB" d="M163.29,15.411c3.165-0.717,4.599-2.826,5.485-5.483h3.88v4.936h4.937
		l-0.339,4.64h-4.598v9.069c0,2.32,0.422,2.996,2.404,2.996c1.014,0,1.94-0.254,2.616-0.633l0.97,4.725
		c-1.182,0.715-3.29,1.307-5.652,1.307c-7.341,0-7.424-3.797-7.424-7.678v-9.786h-2.827L163.29,15.411z"/>
	<path clip-path="url(#SVGID_2_)" fill="#3575BB" d="M198.008,20.727c0,5.948-5.146,7.551-11.516,7.424
		c0.211,1.983,1.477,3.585,4.218,3.585c2.152,0,4.009-0.801,5.357-1.687l1.856,4.682c-0.211,0.21-3.417,2.235-8.184,2.235
		c-7.383,0-10.251-4.598-10.251-10.841c0-6.286,3.755-11.854,11.054-11.854C194.971,14.273,198.008,16.298,198.008,20.727
		 M190.162,19.292c-2.193,0-3.628,1.982-3.755,4.725c3.839,0.127,5.569-0.887,5.569-2.91
		C191.977,19.799,191.217,19.292,190.162,19.292"/>
</g>
</svg>
